<?xml version="1.0" encoding="UTF-8"?>
<svg xmlns="http://www.w3.org/2000/svg" xmlns:xlink="http://www.w3.org/1999/xlink" width="32pt" height="32pt" viewBox="0 0 32 32" version="1.1">
<g id="surface16929730">
<path style=" stroke:none;fill-rule:nonzero;fill:rgb(100%,100%,100%);fill-opacity:1;" d="M 15 2 C 7.84375 2 2 7.84375 2 15 C 2 22.15625 7.84375 28 15 28 C 21.757812 28 27.34375 22.796875 27.9375 16.179688 L 28.132812 14 L 16 14 L 16 18 L 23.34375 18 C 22.09375 21.46875 18.914062 24 15 24 C 10.007812 24 6 19.992188 6 15 C 6 10.007812 10.007812 6 15 6 C 17.382812 6 19.53125 6.921875 21.140625 8.421875 L 23.875 5.5 C 21.546875 3.328125 18.421875 2 15 2 Z M 15 2 "/>
</g>
</svg>
